<?xml version="1.0" standalone="no"?>
<!DOCTYPE svg PUBLIC "-//W3C//DTD SVG 20010904//EN"
 "http://www.w3.org/TR/2001/REC-SVG-20010904/DTD/svg10.dtd">
<svg version="1.0" xmlns="http://www.w3.org/2000/svg"
 width="500.000000pt" height="119.000000pt" viewBox="0 0 500.000000 119.000000"
 preserveAspectRatio="xMidYMid meet">
<metadata>
Created by potrace 1.15, written by Peter Selinger 2001-2017
</metadata>
<g transform="translate(0.000000,119.000000) scale(0.100000,-0.100000)"
fill="#000000" stroke="none">
<path d="M160 510 c0 -260 4 -400 10 -400 6 0 10 51 10 133 l0 132 172 -3
c164 -3 174 -4 190 -25 10 -12 16 -28 13 -35 -2 -6 2 -12 9 -12 13 0 86 -101
86 -120 0 -5 5 -10 10 -10 6 0 10 -7 10 -15 0 -8 7 -15 15 -15 8 0 15 -7 15
-15 0 -8 4 -15 9 -15 21 0 19 18 -5 54 -14 20 -22 41 -19 46 3 6 -1 10 -10 10
-8 0 -21 12 -28 27 -6 15 -22 38 -34 52 -13 13 -23 30 -23 36 0 7 -6 15 -14
18 -7 3 -16 15 -19 26 -5 19 3 26 25 22 5 0 17 8 28 19 11 11 27 20 35 20 8 0
15 6 15 14 0 8 4 16 8 18 17 7 52 68 52 91 0 13 7 30 15 37 8 7 15 25 15 40 0
15 -7 33 -15 40 -8 7 -15 22 -15 34 0 26 -22 76 -32 76 -5 0 -8 5 -8 11 0 13
-26 40 -32 33 -3 -2 -17 7 -32 21 -16 15 -39 25 -57 25 -19 0 -29 5 -29 15 0
13 -27 15 -185 15 l-185 0 0 -400z m240 332 c133 2 179 0 176 -8 -3 -7 3 -10
15 -7 11 3 21 -1 25 -11 3 -9 10 -16 16 -16 12 0 28 -17 51 -52 20 -32 22 -58
5 -58 -6 0 -2 -9 10 -20 20 -19 21 -50 0 -50 -5 0 -7 -13 -3 -29 7 -34 -18
-81 -42 -81 -9 0 -13 -6 -9 -15 3 -9 0 -15 -8 -15 -8 0 -17 -7 -20 -16 -4 -10
-14 -14 -25 -11 -12 3 -18 0 -15 -7 3 -8 -43 -10 -176 -8 -122 3 -185 1 -194
-7 -7 -6 -16 -8 -19 -4 -9 8 -9 418 0 426 3 4 12 2 19 -4 9 -8 72 -10 194 -7z"/>
<path d="M1845 888 c-3 -13 -4 -191 -3 -397 2 -289 6 -375 16 -379 9 -3 12 23
12 110 l0 113 156 -3 c136 -3 158 -2 174 13 12 11 29 16 45 12 17 -3 28 0 32
10 3 8 13 11 24 8 12 -4 19 -2 19 7 0 8 9 20 21 28 11 8 29 30 40 48 12 17 24
30 28 28 4 -3 7 8 6 22 0 15 5 26 10 25 6 -1 10 34 10 87 0 53 -4 88 -10 87
-5 -1 -10 10 -10 26 1 15 -5 27 -12 27 -7 0 -13 3 -13 8 0 12 -47 62 -59 62
-6 0 -11 7 -11 15 0 8 -9 15 -20 15 -11 0 -20 7 -20 15 0 11 -8 13 -30 9 -22
-5 -31 -2 -36 10 -5 14 -29 16 -185 16 -177 0 -179 0 -184 -22z m240 -46 c128
2 175 0 175 -9 0 -6 9 -9 20 -6 14 4 20 0 20 -11 0 -9 7 -16 15 -16 18 0 20
-19 3 -21 -7 -1 0 -4 15 -8 26 -5 37 -19 69 -83 11 -23 10 -113 -1 -136 -52
-107 -90 -144 -141 -138 -19 1 -27 1 -17 -1 20 -5 23 -23 5 -24 -7 0 -95 -1
-195 -2 l-183 -2 0 231 c0 127 3 234 7 237 3 4 12 2 19 -4 9 -7 72 -10 189 -7z"/>
<path d="M2680 898 c0 -7 3 -23 6 -35 6 -22 8 -22 244 -22 l238 0 4 30 c3 16
2 31 0 34 -3 3 -115 5 -249 5 -188 0 -243 -3 -243 -12z"/>
<path d="M3470 505 l0 -405 170 0 c150 0 170 2 170 16 0 14 7 15 40 10 29 -5
38 -3 35 6 -6 14 70 62 84 53 5 -3 7 5 3 17 -4 17 -2 20 12 15 11 -4 15 -3 10
4 -4 6 -2 14 3 18 5 3 17 23 26 43 18 39 32 47 40 26 3 -8 6 -6 6 5 1 9 -2 17
-6 17 -5 0 -8 79 -8 175 0 96 3 175 8 175 4 0 7 8 7 18 0 13 -2 14 -9 3 -11
-18 -31 -5 -31 20 0 10 -4 19 -10 19 -5 0 -10 5 -10 11 0 7 -10 20 -21 30 -13
11 -19 25 -15 34 3 9 2 13 -4 10 -14 -9 -91 38 -85 53 3 9 -6 11 -35 6 -33 -5
-40 -4 -40 10 0 14 -20 16 -170 16 l-170 0 0 -405z m388 327 c1 -5 12 -8 22
-5 14 4 20 0 20 -11 0 -9 7 -16 15 -16 18 0 20 -16 3 -24 -7 -3 -1 -3 15 0 20
5 27 2 27 -10 0 -9 4 -16 9 -16 5 0 16 -11 25 -25 14 -21 14 -29 5 -48 -11
-20 -11 -21 4 -8 26 21 32 -8 32 -164 0 -147 -7 -187 -27 -167 -7 7 -16 12
-21 12 -5 0 -1 -7 7 -16 21 -21 20 -26 -9 -58 -14 -15 -25 -29 -25 -32 0 -12
-29 -34 -44 -34 -9 0 -16 -7 -16 -16 0 -11 -6 -15 -20 -11 -10 3 -21 0 -22 -5
-3 -7 -72 -11 -186 -12 l-182 -1 0 340 0 340 182 -2 c110 -1 184 -5 186 -11z"/>
<path d="M1240 855 c-5 -14 -14 -25 -20 -25 -5 0 -10 -11 -10 -25 0 -14 -6
-25 -14 -25 -9 0 -12 -8 -8 -25 2 -15 0 -25 -7 -25 -6 0 -11 -7 -11 -15 0 -8
-4 -23 -9 -33 -6 -9 -18 -36 -27 -59 -10 -24 -21 -43 -26 -43 -4 0 -8 -11 -8
-25 0 -15 -6 -25 -14 -25 -9 0 -12 -7 -9 -19 3 -10 0 -22 -6 -25 -6 -4 -11
-16 -11 -26 0 -29 -19 -34 -29 -8 -6 13 -10 17 -10 10 -1 -7 4 -20 10 -30 9
-14 5 -28 -15 -66 -14 -27 -26 -55 -26 -63 0 -7 -7 -16 -15 -19 -8 -4 -13 -10
-10 -14 3 -5 2 -15 -1 -24 -5 -14 -9 -14 -23 -4 -14 11 -14 11 -3 -4 11 -13 9
-24 -11 -65 -13 -27 -22 -54 -19 -61 5 -16 712 -17 712 -2 0 6 -4 18 -9 28
-27 53 -33 72 -28 86 4 10 1 16 -9 16 -12 0 -14 9 -11 42 2 24 2 33 0 21 -6
-34 -17 -28 -38 20 -10 23 -33 73 -52 112 -18 38 -31 75 -29 81 3 7 -2 15 -11
18 -9 4 -13 14 -10 26 3 13 0 20 -9 20 -8 0 -14 5 -14 10 0 6 -11 33 -25 62
-14 28 -25 58 -25 65 0 7 -5 13 -11 13 -7 0 -9 10 -7 25 4 17 1 25 -8 25 -8 0
-14 11 -14 25 0 14 -4 25 -10 25 -5 0 -12 11 -16 25 -3 14 -13 25 -20 25 -8 0
-19 -11 -24 -25z m40 -65 c0 -11 4 -20 9 -20 4 0 16 -21 26 -47 10 -27 22 -52
26 -57 5 -6 9 -18 9 -28 0 -10 5 -18 10 -18 6 0 10 -11 10 -25 0 -14 5 -25 10
-25 6 0 10 -11 10 -24 0 -13 7 -26 15 -30 8 -3 15 -15 15 -26 0 -11 4 -20 8
-20 8 0 36 -66 37 -85 0 -5 5 -16 12 -23 7 -7 10 -19 7 -26 -3 -7 2 -16 11
-20 11 -4 14 -12 10 -26 -4 -14 -2 -20 8 -20 8 0 17 -8 20 -17 3 -10 12 -34
20 -53 l15 -35 -308 0 c-169 0 -307 2 -305 5 1 3 12 26 24 53 12 26 26 47 31
47 6 0 10 11 10 25 0 14 6 25 14 25 9 0 12 8 8 25 -2 15 0 25 7 25 6 0 11 7
11 15 0 8 4 23 9 33 6 9 18 36 27 60 10 23 21 42 26 42 4 0 8 11 8 25 0 16 6
25 16 25 8 0 12 5 8 11 -3 6 -2 21 4 32 6 12 13 30 16 40 3 10 10 15 16 12 6
-3 7 0 4 9 -3 9 6 36 20 62 14 26 26 53 26 60 0 8 9 14 20 14 13 0 20 -7 20
-20z"/>
<path d="M4574 855 c-3 -14 -13 -25 -20 -25 -10 0 -13 -7 -8 -25 5 -18 2 -25
-9 -25 -10 0 -13 -7 -10 -20 3 -12 -1 -22 -11 -26 -9 -3 -14 -10 -11 -14 5 -9
-24 -80 -36 -90 -4 -3 -9 -14 -11 -25 -2 -11 -10 -19 -16 -18 -7 2 -12 -9 -12
-27 0 -17 -4 -30 -10 -30 -5 0 -10 -11 -10 -25 0 -14 -4 -25 -10 -25 -5 0 -10
-7 -10 -15 0 -8 -4 -23 -9 -33 -6 -9 -18 -36 -27 -59 -10 -24 -21 -43 -25 -43
-4 0 -9 -10 -11 -22 -2 -13 -8 -22 -14 -21 -5 1 -10 -10 -9 -25 0 -15 -5 -26
-11 -25 -7 1 -10 -6 -7 -18 3 -12 2 -24 -3 -28 -5 -3 -15 -19 -22 -34 -26 -60
-44 -57 343 -57 345 0 355 1 355 19 0 11 -4 23 -10 26 -5 3 -10 15 -10 26 0
10 -5 19 -11 19 -7 0 -9 10 -7 25 3 14 1 23 -6 22 -6 -1 -12 10 -14 26 -2 15
-8 27 -13 27 -5 0 -9 9 -9 20 0 11 -4 20 -8 20 -5 0 -16 19 -26 43 -9 23 -21
50 -27 59 -5 10 -9 23 -9 29 0 6 -7 17 -15 25 -11 12 -12 20 -5 34 8 16 8 18
-5 14 -15 -6 -19 4 -15 40 1 10 -3 15 -9 12 -16 -10 -74 123 -61 139 8 10 6
13 -7 11 -13 -1 -18 6 -17 22 0 13 -5 22 -14 22 -10 0 -13 8 -10 25 3 16 1 25
-7 25 -7 0 -16 11 -19 25 -4 14 -13 25 -21 25 -8 0 -17 -11 -21 -25z m51 -82
c9 -21 21 -46 26 -55 5 -10 9 -25 9 -33 0 -8 4 -15 9 -15 15 0 22 -32 11 -45
-8 -10 -6 -13 7 -11 12 0 18 -6 18 -19 0 -11 6 -25 14 -31 8 -6 11 -18 8 -28
-4 -10 -1 -16 8 -16 8 0 15 -5 15 -10 0 -6 11 -34 25 -62 14 -29 23 -58 21
-64 -3 -7 2 -15 11 -18 9 -4 13 -14 10 -26 -3 -14 0 -20 10 -20 11 0 14 -7 11
-25 -3 -15 -1 -25 7 -25 10 0 61 -100 53 -104 -2 0 -130 1 -286 4 -156 3 -292
2 -303 -2 -10 -4 -19 -5 -19 -3 0 14 45 105 52 105 4 0 8 11 8 25 0 14 6 25
14 25 9 0 12 8 8 25 -2 15 0 25 7 25 6 0 11 6 11 13 0 7 11 37 25 65 14 29 25
56 25 62 0 5 7 10 15 10 9 0 12 6 8 16 -3 10 0 22 8 28 8 6 14 20 14 31 0 13
6 19 18 19 13 -2 15 1 7 11 -13 16 65 185 85 185 8 0 21 -17 30 -37z"/>
<path d="M2686 147 c-13 -49 -21 -47 245 -47 l251 0 -6 23 c-3 12 -6 27 -6 34
0 9 -59 12 -239 12 -238 0 -239 0 -245 -22z"/>
</g>
</svg>
